# xmcd
#
# Track frame offsets:
#	150
#	20610
#	43763
#	66596
#	76627
#	96156
#	111383
#	128469
#	141888
#	160305
#	181001
#
# Disc length: 2754 seconds
# Revision: 2
# Processed by: cddbd v1.5.2PL0 Copyright (c) Steve Scherf et al.
# Submitted via: dBpowerAMP V12.0
#
DISCID=8e0ac00b
DTITLE=Continental Robert Susz - Continental Blues Party
DYEAR=2003
DGENRE=Blues
TTITLE0=Quicksand
TTITLE1=Too Late To Cry
TTITLE2=Live And Breathe
TTITLE3=Continental Shuffle
TTITLE4=Please Allow Me
TTITLE5=Lost Without You
TTITLE6=You Hurt Me
TTITLE7=Sidetracked
TTITLE8=Slip Away
TTITLE9=Hard Way To Live
TTITLE10=You Are My Sunshine/Turn On Your Lovelight
EXTD=
EXTT0=
EXTT1=
EXTT2=
EXTT3=
EXTT4=
EXTT5=
EXTT6=
EXTT7=
EXTT8=
EXTT9=
EXTT10=
PLAYORDER=
